<svg width="38" height="38" viewBox="0 0 38 38" fill="none" xmlns="http://www.w3.org/2000/svg">
<path fill-rule="evenodd" clip-rule="evenodd" d="M3.27441 19.8959V17.1773C3.27441 15.5708 4.58743 14.2423 6.20938 14.2423C9.00531 14.2423 10.1484 12.2651 8.74271 9.83982C7.93946 8.4496 8.41832 6.64228 9.82404 5.83904L12.4964 4.30977C13.7167 3.58375 15.2923 4.01627 16.0183 5.2366L16.1882 5.53009C17.5784 7.95529 19.8647 7.95529 21.2704 5.53009L21.4403 5.2366C22.1663 4.01627 23.7419 3.58375 24.9622 4.30977L27.6345 5.83904C29.0403 6.64228 29.5192 8.4496 28.7159 9.83982C27.3102 12.2651 28.4533 14.2423 31.2492 14.2423C32.8557 14.2423 34.1842 15.5553 34.1842 17.1773V19.8959C34.1842 21.5025 32.8711 22.8309 31.2492 22.8309C31.2492 22.8309 26.0744 20.8536 21.4403 23.1707C16.8061 25.4878 16.1882 31.5431 16.1882 31.5431L16.0183 31.8366C15.2923 33.0569 13.7167 33.4894 12.4964 32.7635L9.82404 31.2342C8.41832 30.4309 7.93946 28.6236 8.74271 27.2333C10.1484 24.8081 9.00531 22.8309 6.20938 22.8309C4.58743 22.8309 3.27441 21.5025 3.27441 19.8959ZM23.3557 18.5365C23.3557 21.0959 21.2809 23.1707 18.7216 23.1707C16.1622 23.1707 14.0875 21.0959 14.0875 18.5365C14.0875 15.9771 16.1622 13.9024 18.7216 13.9024C21.2809 13.9024 23.3557 15.9771 23.3557 18.5365Z" fill="#1F506A" stroke="#1F506A" stroke-width="2.5" stroke-miterlimit="10" stroke-linecap="round" stroke-linejoin="round"/>
<path d="M20.6449 31.9055C20.5414 32.2236 20.2449 32.439 19.9104 32.439H19.8052C19.2745 32.439 18.9019 31.9161 19.0752 31.4145L21.2082 25.2357C21.3157 24.9243 21.6088 24.7153 21.9382 24.7153H22.9414C23.271 24.7153 23.5643 24.9244 23.6717 25.236L25.8016 31.4148C25.9746 31.9164 25.602 32.439 25.0715 32.439H24.9661C24.6314 32.439 24.3348 32.2234 24.2315 31.9051L22.4795 26.509C22.4739 26.4919 22.458 26.4803 22.4399 26.4803C22.4219 26.4803 22.406 26.4919 22.4004 26.509L20.6449 31.9055ZM20.362 30.0404C20.362 29.6884 20.6473 29.403 20.9993 29.403H23.858C24.21 29.403 24.4953 29.6884 24.4953 30.0404C24.4953 30.3924 24.21 30.6777 23.858 30.6777H20.9993C20.6473 30.6777 20.362 30.3924 20.362 30.0404Z" fill="#1F506A"/>
<path d="M27.8564 32.439C27.4298 32.439 27.084 32.0932 27.084 31.6666V25.4878C27.084 25.0611 27.4298 24.7153 27.8564 24.7153H30.1312C30.717 24.7153 31.2161 24.8272 31.6284 25.051C32.0408 25.2723 32.355 25.5802 32.5712 25.975C32.7899 26.3672 32.8993 26.8197 32.8993 27.3326C32.8993 27.8455 32.7887 28.2981 32.5675 28.6903C32.3462 29.0825 32.0257 29.3879 31.6058 29.6067C31.1884 29.8254 30.683 29.9348 30.0897 29.9348H28.8019C28.4405 29.9348 28.1475 29.6419 28.1475 29.2805C28.1475 28.9192 28.4405 28.6262 28.8019 28.6262H29.8257C30.14 28.6262 30.399 28.5721 30.6026 28.464C30.8088 28.3534 30.9621 28.2012 31.0627 28.0077C31.1658 27.8116 31.2174 27.5866 31.2174 27.3326C31.2174 27.0762 31.1658 26.8524 31.0627 26.6613C30.9621 26.4678 30.8088 26.3182 30.6026 26.2125C30.3965 26.1045 30.135 26.0504 29.8182 26.0504H28.717V31.6666C28.717 32.0932 28.3712 32.439 27.9446 32.439H27.8564Z" fill="#1F506A"/>
<path d="M34.8215 24.7153C35.248 24.7153 35.5938 25.0611 35.5938 25.4878V31.6666C35.5938 32.0932 35.248 32.439 34.8215 32.439H34.7333C34.3067 32.439 33.9609 32.0932 33.9609 31.6666V25.4878C33.9609 25.0611 34.3067 24.7153 34.7333 24.7153H34.8215Z" fill="#1F506A"/>
</svg>
