<svg width="39" height="38" viewBox="0 0 39 38" fill="none" xmlns="http://www.w3.org/2000/svg">
<path fill-rule="evenodd" clip-rule="evenodd" d="M3.77441 19.896V17.1774C3.77441 15.5709 5.08743 14.2424 6.70938 14.2424C9.50531 14.2424 10.6484 12.2652 9.24271 9.83995C8.43946 8.44972 8.91832 6.6424 10.324 5.83916L12.9964 4.30989C14.2167 3.58387 15.7923 4.01639 16.5183 5.23672L16.6882 5.53021C18.0784 7.95541 20.3647 7.95541 21.7704 5.53021L21.9403 5.23672C22.6663 4.01639 24.2419 3.58387 25.4622 4.30989L28.1345 5.83916C29.5403 6.6424 30.0192 8.44972 29.2159 9.83995C27.8102 12.2652 28.9533 14.2424 31.7492 14.2424C33.3557 14.2424 34.6842 15.5554 34.6842 17.1774V19.896C34.6842 21.5026 33.3711 22.831 31.7492 22.831C31.7492 22.831 26.5744 20.8537 21.9403 23.1708C17.3061 25.4879 16.6882 31.5432 16.6882 31.5432L16.5183 31.8368C15.7923 33.057 14.2167 33.4896 12.9964 32.7636L10.324 31.2343C8.91832 30.431 8.43946 28.6237 9.24271 27.2335C10.6484 24.8082 9.50531 22.831 6.70938 22.831C5.08743 22.831 3.77441 21.5026 3.77441 19.896ZM23.8557 18.5367C23.8557 21.096 21.7809 23.1708 19.2216 23.1708C16.6622 23.1708 14.5875 21.096 14.5875 18.5367C14.5875 15.9772 16.6622 13.9025 19.2216 13.9025C21.7809 13.9025 23.8557 15.9772 23.8557 18.5367Z" fill="#00B8F0" stroke="#00B8F0" stroke-width="2.5" stroke-miterlimit="10" stroke-linecap="round" stroke-linejoin="round"/>
<path d="M21.1449 31.9055C21.0414 32.2236 20.7449 32.439 20.4104 32.439H20.3052C19.7745 32.439 19.4019 31.9161 19.5752 31.4145L21.7082 25.2357C21.8157 24.9243 22.1088 24.7153 22.4382 24.7153H23.4414C23.771 24.7153 24.0643 24.9244 24.1717 25.236L26.3016 31.4148C26.4746 31.9164 26.102 32.439 25.5715 32.439H25.4661C25.1314 32.439 24.8348 32.2234 24.7315 31.9051L22.9795 26.509C22.9739 26.4919 22.958 26.4803 22.9399 26.4803C22.9219 26.4803 22.906 26.4919 22.9004 26.509L21.1449 31.9055ZM20.862 30.0404C20.862 29.6884 21.1473 29.403 21.4993 29.403H24.358C24.71 29.403 24.9953 29.6884 24.9953 30.0404C24.9953 30.3924 24.71 30.6777 24.358 30.6777H21.4993C21.1473 30.6777 20.862 30.3924 20.862 30.0404Z" fill="#00B8F0"/>
<path d="M28.3564 32.439C27.9298 32.439 27.584 32.0932 27.584 31.6666V25.4878C27.584 25.0611 27.9298 24.7153 28.3564 24.7153H30.6312C31.217 24.7153 31.7161 24.8272 32.1284 25.051C32.5408 25.2723 32.855 25.5802 33.0712 25.975C33.2899 26.3672 33.3993 26.8197 33.3993 27.3326C33.3993 27.8455 33.2887 28.2981 33.0675 28.6903C32.8462 29.0825 32.5257 29.3879 32.1058 29.6067C31.6884 29.8254 31.183 29.9348 30.5897 29.9348H29.3019C28.9405 29.9348 28.6475 29.6419 28.6475 29.2805C28.6475 28.9192 28.9405 28.6262 29.3019 28.6262H30.3257C30.64 28.6262 30.899 28.5721 31.1026 28.464C31.3088 28.3534 31.4621 28.2012 31.5627 28.0077C31.6658 27.8116 31.7174 27.5866 31.7174 27.3326C31.7174 27.0762 31.6658 26.8524 31.5627 26.6613C31.4621 26.4678 31.3088 26.3182 31.1026 26.2125C30.8965 26.1045 30.635 26.0504 30.3182 26.0504H29.217V31.6666C29.217 32.0932 28.8712 32.439 28.4446 32.439H28.3564Z" fill="#00B8F0"/>
<path d="M35.3215 24.7153C35.748 24.7153 36.0938 25.0611 36.0938 25.4878V31.6666C36.0938 32.0932 35.748 32.439 35.3215 32.439H35.2333C34.8067 32.439 34.4609 32.0932 34.4609 31.6666V25.4878C34.4609 25.0611 34.8067 24.7153 35.2333 24.7153H35.3215Z" fill="#00B8F0"/>
</svg>
