<svg width="35" height="30" viewBox="0 0 35 30" fill="none" xmlns="http://www.w3.org/2000/svg">
<path fill-rule="evenodd" clip-rule="evenodd" d="M6.57259 3.29185C6.57259 1.76153 7.81314 0.520996 9.3434 0.520996C10.8738 0.520996 12.1143 1.76153 12.1143 3.29185C12.1143 4.39727 11.4669 5.35145 10.5307 5.79615V7.67268C11.1545 7.65435 11.8138 7.64599 12.5101 7.64599H22.0101C24.4064 7.64599 26.3636 7.74498 27.9449 8.00851C29.5227 8.27147 30.8215 8.71284 31.8268 9.46685C33.9216 11.038 34.2809 13.5966 34.2809 16.7501V19.9169C34.2809 23.0704 33.9216 25.629 31.8268 27.2001C30.8215 27.9541 29.5227 28.3955 27.9449 28.6585C26.3636 28.922 24.4064 29.021 22.0101 29.021H12.5101C10.1138 29.021 8.15657 28.922 6.57528 28.6585C4.99743 28.3955 3.69873 27.9541 2.69342 27.2001C0.598595 25.629 0.239258 23.0704 0.239258 19.9169V16.7501C0.239258 13.5966 0.598595 11.038 2.69342 9.46685C3.69873 8.71284 4.99743 8.27147 6.57528 8.00851C7.0654 7.92681 7.59151 7.86097 8.15571 7.80891V5.79596C7.21968 5.35117 6.57259 4.39708 6.57259 3.29185ZM9.3434 2.89599C9.12481 2.89599 8.94763 3.07326 8.94763 3.29185C8.94763 3.51045 9.12481 3.68762 9.3434 3.68762C9.562 3.68762 9.73927 3.51045 9.73927 3.29185C9.73927 3.07326 9.562 2.89599 9.3434 2.89599ZM7.75994 18.3335C7.75994 16.5846 9.17763 15.1669 10.9266 15.1669C12.6754 15.1669 14.0932 16.5846 14.0932 18.3335C14.0932 20.0824 12.6754 21.5001 10.9266 21.5001C9.17763 21.5001 7.75994 20.0824 7.75994 18.3335ZM20.4266 18.3335C20.4266 16.5846 21.8444 15.1669 23.5932 15.1669C25.3422 15.1669 26.7599 16.5846 26.7599 18.3335C26.7599 20.0824 25.3422 21.5001 23.5932 21.5001C21.8444 21.5001 20.4266 20.0824 20.4266 18.3335Z" fill="#00B8F0"/>
</svg>
