<svg width="39" height="38" viewBox="0 0 39 38" fill="none" xmlns="http://www.w3.org/2000/svg">
<path fill-rule="evenodd" clip-rule="evenodd" d="M26.6233 1.99646C26.713 1.98952 26.847 1.97919 26.9955 1.97919H33.1095C34.1247 1.97919 35.0631 2.3228 35.7506 3.01031C36.438 3.6978 36.7816 4.63614 36.7816 5.65139V8.62567C36.7816 8.96689 36.7447 9.32325 36.6456 9.67383C36.2231 11.3151 34.8196 12.2978 33.1095 12.2978H30.3288L28.4267 13.5638C27.281 14.3425 25.808 13.4805 25.808 12.1701V12.128C25.2602 11.9627 24.7644 11.6767 24.3581 11.2704C23.6678 10.5802 23.3232 9.64239 23.3232 8.62567V5.65139C23.3232 4.70701 23.6202 3.82703 24.2217 3.15215C24.8248 2.47547 25.6625 2.08585 26.5928 1.99897L26.612 1.99716L26.6233 1.99646ZM26.805 4.36449C26.4101 4.4032 26.1541 4.5535 25.9947 4.73236C25.8326 4.91434 25.6982 5.20729 25.6982 5.65139V8.62567C25.6982 9.09976 25.8507 9.40435 26.0374 9.59109C26.2149 9.76864 26.5185 9.92283 26.9955 9.92283C27.575 9.92283 28.0576 10.338 28.162 10.8871L29.3119 10.1219C29.5068 9.99209 29.7356 9.92283 29.9698 9.92283H33.1095C33.8478 9.92283 34.2229 9.56905 34.3475 9.07392C34.351 9.06012 34.3547 9.04637 34.3587 9.03269C34.3865 8.93696 34.4066 8.8038 34.4066 8.62567V5.65139C34.4066 5.17584 34.2533 4.87182 34.0712 4.68967C33.889 4.50753 33.585 4.35419 33.1095 4.35419H26.9955C26.9474 4.35419 26.8983 4.35736 26.805 4.36449Z" fill="#1F506A"/>
<path fill-rule="evenodd" clip-rule="evenodd" d="M9.07259 10.2917C9.07259 8.76141 10.3131 7.52087 11.8434 7.52087C13.3738 7.52087 14.6143 8.76141 14.6143 10.2917C14.6143 11.3971 13.9669 12.3513 13.0307 12.796V14.6726C13.6545 14.6542 14.3138 14.6459 15.0101 14.6459H24.5101C26.9064 14.6459 28.8636 14.7449 30.4449 15.0084C32.0227 15.2713 33.3215 15.7127 34.3268 16.4667C36.4216 18.0378 36.7809 20.5965 36.7809 23.75V26.9167C36.7809 30.0703 36.4216 32.6289 34.3268 34.2C33.3215 34.954 32.0227 35.3954 30.4449 35.6583C28.8636 35.9219 26.9064 36.0209 24.5101 36.0209H15.0101C12.6138 36.0209 10.6566 35.9219 9.07528 35.6583C7.49743 35.3954 6.19873 34.954 5.19342 34.2C3.0986 32.6289 2.73926 30.0703 2.73926 26.9167V23.75C2.73926 20.5965 3.0986 18.0378 5.19342 16.4667C6.19873 15.7127 7.49743 15.2713 9.07528 15.0084C9.5654 14.9267 10.0915 14.8608 10.6557 14.8088V12.7958C9.71968 12.351 9.07259 11.397 9.07259 10.2917ZM11.8434 9.89586C11.6248 9.89586 11.4476 10.0731 11.4476 10.2917C11.4476 10.5103 11.6248 10.6875 11.8434 10.6875C12.062 10.6875 12.2393 10.5103 12.2393 10.2917C12.2393 10.0731 12.062 9.89586 11.8434 9.89586ZM10.2599 25.3334C10.2599 23.5845 11.6776 22.1667 13.4266 22.1667C15.1754 22.1667 16.5932 23.5845 16.5932 25.3334C16.5932 27.0823 15.1754 28.5 13.4266 28.5C11.6776 28.5 10.2599 27.0823 10.2599 25.3334ZM22.9266 25.3334C22.9266 23.5845 24.3444 22.1667 26.0932 22.1667C27.8422 22.1667 29.2599 23.5845 29.2599 25.3334C29.2599 27.0823 27.8422 28.5 26.0932 28.5C24.3444 28.5 22.9266 27.0823 22.9266 25.3334Z" fill="#1F506A"/>
</svg>
