<svg width="38" height="38" viewBox="0 0 38 38" fill="none" xmlns="http://www.w3.org/2000/svg">
<path d="M0 19C0 8.50659 8.50659 0 19 0C29.4934 0 38 8.50659 38 19V33C38 35.7614 35.7614 38 33 38H19C8.50659 38 0 29.4934 0 19Z" fill="url(#paint0_linear_217_2086)"/>
<g clip-path="url(#clip0_217_2086)">
<path d="M28.75 19V26.5C28.75 27.4946 28.3549 28.4484 27.6517 29.1516C26.9484 29.8549 25.9946 30.25 25 30.25H19.75C19.5511 30.25 19.3603 30.171 19.2197 30.0303C19.079 29.8897 19 29.6989 19 29.5C19 29.3011 19.079 29.1103 19.2197 28.9697C19.3603 28.829 19.5511 28.75 19.75 28.75H25C25.5967 28.75 26.169 28.5129 26.591 28.091C27.0129 27.669 27.25 27.0967 27.25 26.5H25C24.4033 26.5 23.831 26.2629 23.409 25.841C22.9871 25.419 22.75 24.8467 22.75 24.25V20.5C22.75 19.9033 22.9871 19.331 23.409 18.909C23.831 18.487 24.4033 18.25 25 18.25H27.2172C27.0753 16.6909 26.4926 15.2043 25.5374 13.964C24.5821 12.7236 23.2936 11.7807 21.8225 11.2453C20.3513 10.7099 18.7581 10.6042 17.2291 10.9405C15.7001 11.2767 14.2983 12.0411 13.1875 13.1444C11.8062 14.5074 10.9543 16.3169 10.7838 18.25H13C13.5967 18.25 14.169 18.487 14.591 18.909C15.0129 19.331 15.25 19.9033 15.25 20.5V24.25C15.25 24.8467 15.0129 25.419 14.591 25.841C14.169 26.2629 13.5967 26.5 13 26.5H11.5C10.9033 26.5 10.331 26.2629 9.90901 25.841C9.48705 25.419 9.25 24.8467 9.25 24.25V19C9.2521 17.0686 9.82715 15.1813 10.9023 13.577C11.9775 11.9726 13.5046 10.7232 15.2901 9.9871C17.0757 9.25096 19.0395 9.0611 20.933 9.44156C22.8265 9.82201 24.5646 10.7557 25.9272 12.1244C26.8268 13.0284 27.5393 14.1011 28.0237 15.2809C28.5081 16.4608 28.7549 17.7246 28.75 19Z" fill="white"/>
</g>
<defs>
<linearGradient id="paint0_linear_217_2086" x1="0" y1="0" x2="39.633" y2="1.78724" gradientUnits="userSpaceOnUse">
<stop stop-color="#0EBAEE"/>
<stop offset="1" stop-color="#1997DB"/>
</linearGradient>
<clipPath id="clip0_217_2086">
<rect width="24" height="24" fill="white" transform="translate(7 7)"/>
</clipPath>
</defs>
</svg>
