<svg width="38" height="38" viewBox="0 0 38 38" fill="none" xmlns="http://www.w3.org/2000/svg">
<path d="M0 19C0 8.50659 8.50659 0 19 0C29.4934 0 38 8.50659 38 19V33C38 35.7614 35.7614 38 33 38H19C8.50659 38 0 29.4934 0 19Z" fill="url(#paint0_linear_217_2094)"/>
<g clip-path="url(#clip0_217_2094)">
<path d="M28.7303 24.5622C29.2593 23.487 29.5229 22.3008 29.4992 21.1028C29.4754 19.9049 29.165 18.73 28.5939 17.6767C28.0228 16.6233 27.2076 15.7221 26.2166 15.0486C25.2257 14.375 24.0877 13.9487 22.8981 13.8053C22.502 12.8878 21.9266 12.0588 21.2055 11.3669C20.4845 10.6749 19.6325 10.1341 18.6995 9.77604C17.7665 9.41802 16.7714 9.25005 15.7726 9.28202C14.7738 9.31399 13.7914 9.54524 12.8833 9.96219C11.9751 10.3791 11.1594 10.9734 10.4841 11.71C9.80877 12.4466 9.2875 13.3108 8.95086 14.2517C8.61422 15.1926 8.46902 16.1913 8.52377 17.1891C8.57853 18.1869 8.83214 19.1638 9.26971 20.0622L8.55158 22.5766C8.49573 22.7718 8.48595 22.9774 8.52303 23.1771C8.5601 23.3768 8.64302 23.5651 8.76524 23.7273C8.88747 23.8896 9.04567 24.0212 9.22739 24.1119C9.40912 24.2026 9.60942 24.2499 9.81252 24.25C9.93432 24.2503 10.0555 24.2333 10.1725 24.1994L12.6869 23.4812C13.4453 23.8562 14.2625 24.0981 15.1028 24.1966C15.5029 25.1335 16.0896 25.9792 16.8273 26.6819C17.5649 27.3846 18.438 27.9297 19.3933 28.2838C20.3486 28.638 21.366 28.7938 22.3834 28.7418C23.4009 28.6898 24.3971 28.431 25.3113 27.9812L27.8256 28.6994C28.0506 28.7635 28.2886 28.7663 28.515 28.7075C28.7414 28.6487 28.9479 28.5306 29.1133 28.3652C29.2787 28.1998 29.3969 27.9932 29.4557 27.7668C29.5144 27.5404 29.5116 27.3024 29.4475 27.0775L28.7303 24.5622ZM19.375 21.25C19.1525 21.25 18.935 21.184 18.75 21.0604C18.565 20.9368 18.4208 20.7611 18.3357 20.5555C18.2505 20.35 18.2282 20.1238 18.2716 19.9055C18.315 19.6873 18.4222 19.4868 18.5795 19.3295C18.7369 19.1722 18.9373 19.065 19.1555 19.0216C19.3738 18.9782 19.6 19.0005 19.8055 19.0856C20.0111 19.1708 20.1868 19.315 20.3104 19.5C20.434 19.685 20.5 19.9025 20.5 20.125C20.5 20.4234 20.3815 20.7095 20.1705 20.9205C19.9595 21.1315 19.6734 21.25 19.375 21.25ZM14.5 21.25C14.5003 21.6997 14.5414 22.1484 14.6228 22.5906C14.0993 22.4691 13.5947 22.277 13.1228 22.0197C12.9509 21.9258 12.749 21.9029 12.5603 21.9559L10.0844 22.6637L10.7922 20.1878C10.8453 19.9992 10.8224 19.7973 10.7285 19.6253C9.95469 18.234 9.76529 16.5924 10.2019 15.0615C10.6386 13.5306 11.6655 12.2358 13.0567 11.462C14.448 10.6883 16.0897 10.4989 17.6206 10.9355C19.1515 11.3721 20.4462 12.399 21.22 13.7903C19.3769 13.9856 17.6711 14.8553 16.4305 16.2324C15.19 17.6095 14.5024 19.3966 14.5 21.25ZM24.625 21.25C24.4025 21.25 24.185 21.184 24 21.0604C23.815 20.9368 23.6708 20.7611 23.5857 20.5555C23.5005 20.35 23.4782 20.1238 23.5216 19.9055C23.565 19.6873 23.6722 19.4868 23.8295 19.3295C23.9869 19.1722 24.1873 19.065 24.4055 19.0216C24.6238 18.9782 24.85 19.0005 25.0555 19.0856C25.2611 19.1708 25.4368 19.315 25.5604 19.5C25.684 19.685 25.75 19.9025 25.75 20.125C25.75 20.4234 25.6315 20.7095 25.4205 20.9205C25.2095 21.1315 24.9234 21.25 24.625 21.25Z" fill="white"/>
</g>
<defs>
<linearGradient id="paint0_linear_217_2094" x1="0" y1="0" x2="39.633" y2="1.78724" gradientUnits="userSpaceOnUse">
<stop stop-color="#0EBAEE"/>
<stop offset="1" stop-color="#1997DB"/>
</linearGradient>
<clipPath id="clip0_217_2094">
<rect width="24" height="24" fill="white" transform="translate(7 7)"/>
</clipPath>
</defs>
</svg>
