<svg width="14" height="16" viewBox="0 0 14 16" fill="none" xmlns="http://www.w3.org/2000/svg">
<path d="M8.08141 0.255086C8.01206 0.197435 7.92988 0.157301 7.84177 0.138066C7.75367 0.118832 7.66224 0.121062 7.57518 0.144567C7.48812 0.168073 7.40798 0.212165 7.34153 0.273128C7.27508 0.33409 7.22426 0.410135 7.19336 0.494852L5.64648 4.74243L3.94773 3.09641C3.89068 3.04108 3.82256 2.99847 3.74784 2.97138C3.67313 2.94429 3.59352 2.93334 3.51426 2.93925C3.43501 2.94516 3.3579 2.9678 3.28803 3.00568C3.21816 3.04355 3.15711 3.09581 3.10891 3.15899C1.58594 5.15446 0.8125 7.16188 0.8125 9.12501C0.8125 10.766 1.4644 12.3398 2.62478 13.5002C3.78516 14.6606 5.35897 15.3125 7 15.3125C8.64103 15.3125 10.2148 14.6606 11.3752 13.5002C12.5356 12.3398 13.1875 10.766 13.1875 9.12501C13.1875 4.94493 9.61633 1.53126 8.08141 0.255086ZM10.9298 9.78172C10.7839 10.5964 10.3919 11.3469 9.80663 11.9321C9.22131 12.5173 8.47076 12.9091 7.65602 13.0548C7.62513 13.0601 7.59384 13.0627 7.5625 13.0625C7.4214 13.0625 7.28547 13.0094 7.18166 12.9138C7.07786 12.8183 7.01376 12.6872 7.00208 12.5466C6.9904 12.406 7.03199 12.2661 7.1186 12.1547C7.20522 12.0433 7.33053 11.9686 7.46969 11.9452C8.63477 11.7491 9.62336 10.7605 9.82094 9.59329C9.84593 9.44615 9.92834 9.31497 10.05 9.22861C10.1718 9.14224 10.3228 9.10775 10.4699 9.13274C10.6171 9.15773 10.7482 9.24014 10.8346 9.36185C10.921 9.48356 10.9555 9.63459 10.9305 9.78172H10.9298Z" fill="#D12E2E"/>
</svg>
