<svg width="52" height="52" viewBox="0 0 52 52" fill="none" xmlns="http://www.w3.org/2000/svg">
<g clip-path="url(#clip0_210_168)">
<path opacity="0.2" d="M6.5 37.375C6.5 38.237 6.84241 39.0636 7.4519 39.6731C8.0614 40.2826 8.88805 40.625 9.75 40.625H13C13.862 40.625 14.6886 40.2826 15.2981 39.6731C15.9076 39.0636 16.25 38.237 16.25 37.375V29.25C16.25 28.388 15.9076 27.5614 15.2981 26.9519C14.6886 26.3424 13.862 26 13 26H6.5V37.375Z" fill="#00B8F0"/>
<path opacity="0.2" d="M39 26C38.138 26 37.3114 26.3424 36.7019 26.9519C36.0924 27.5614 35.75 28.388 35.75 29.25V37.375C35.75 38.237 36.0924 39.0636 36.7019 39.6731C37.3114 40.2826 38.138 40.625 39 40.625H45.5V26H39Z" fill="#00B8F0"/>
<path d="M45.5 40.625V42.25C45.5 43.9739 44.8152 45.6272 43.5962 46.8462C42.3772 48.0652 40.7239 48.75 39 48.75H27.625" stroke="#00B8F0" stroke-width="2" stroke-linecap="round" stroke-linejoin="round"/>
<path d="M45.5 26H39C38.138 26 37.3114 26.3424 36.7019 26.9519C36.0924 27.5614 35.75 28.388 35.75 29.25V37.375C35.75 38.237 36.0924 39.0636 36.7019 39.6731C37.3114 40.2826 38.138 40.625 39 40.625H45.5V26ZM45.5 26C45.5 23.4392 44.9956 20.9035 44.0156 18.5377C43.0357 16.1718 41.5993 14.0222 39.7886 12.2114C37.9778 10.4007 35.8282 8.96432 33.4623 7.98435C31.0965 7.00438 28.5608 6.5 26 6.5C23.4392 6.5 20.9035 7.00438 18.5377 7.98435C16.1718 8.96432 14.0222 10.4007 12.2114 12.2114C10.4007 14.0222 8.96432 16.1718 7.98435 18.5377C7.00438 20.9035 6.5 23.4392 6.5 26M6.5 26V37.375C6.5 38.237 6.84241 39.0636 7.4519 39.6731C8.0614 40.2826 8.88805 40.625 9.75 40.625H13C13.862 40.625 14.6886 40.2826 15.2981 39.6731C15.9076 39.0636 16.25 38.237 16.25 37.375V29.25C16.25 28.388 15.9076 27.5614 15.2981 26.9519C14.6886 26.3424 13.862 26 13 26H6.5Z" stroke="#00B8F0" stroke-width="2" stroke-linecap="round" stroke-linejoin="round"/>
</g>
<defs>
<clipPath id="clip0_210_168">
<rect width="52" height="52" fill="white"/>
</clipPath>
</defs>
</svg>
