<svg width="20" height="20" viewBox="0 0 20 20" fill="none" xmlns="http://www.w3.org/2000/svg">
<g clip-path="url(#clip0_217_2015)">
<path d="M18.7293 16.25H17.5004V7.5C17.5004 7.16848 17.3687 6.85054 17.1343 6.61612C16.8999 6.3817 16.5819 6.25 16.2504 6.25H12.8129C12.73 6.25 12.6505 6.28292 12.5919 6.34153C12.5333 6.40013 12.5004 6.47962 12.5004 6.5625V16.25H11.2504V2.53203C11.2525 2.33733 11.2102 2.14471 11.1268 1.96875C11.0435 1.79279 10.9211 1.6381 10.7691 1.51641C10.562 1.35487 10.3091 1.26272 10.0466 1.25305C9.78407 1.24337 9.52516 1.31666 9.30665 1.4625L3.05665 5.625C2.88519 5.73939 2.74469 5.8944 2.64764 6.07623C2.55059 6.25807 2.50001 6.46108 2.5004 6.66719V16.25H1.27149C1.10998 16.2476 0.953557 16.3065 0.833688 16.4148C0.71382 16.523 0.639399 16.6727 0.625397 16.8336C0.61972 16.9191 0.631682 17.0048 0.66054 17.0855C0.689397 17.1662 0.734534 17.2401 0.793146 17.3026C0.851758 17.365 0.922594 17.4148 1.00125 17.4488C1.07991 17.4828 1.16472 17.5002 1.2504 17.5H18.7504C18.8361 17.5002 18.9209 17.4828 18.9995 17.4488C19.0782 17.4148 19.149 17.365 19.2076 17.3026C19.2663 17.2401 19.3114 17.1662 19.3403 17.0855C19.3691 17.0048 19.3811 16.9191 19.3754 16.8336C19.3614 16.6727 19.287 16.523 19.1671 16.4148C19.0472 16.3065 18.8908 16.2476 18.7293 16.25ZM5.9379 14.375C5.93809 14.4607 5.92065 14.5455 5.88669 14.6241C5.85272 14.7028 5.80295 14.7736 5.74045 14.8323C5.67796 14.8909 5.60408 14.936 5.5234 14.9649C5.44273 14.9937 5.35698 15.0057 5.27149 15C5.11043 14.986 4.96067 14.9115 4.85238 14.7914C4.74409 14.6714 4.68531 14.5148 4.6879 14.3531V13.1461C4.6857 12.9846 4.74462 12.8283 4.85286 12.7085C4.9611 12.5887 5.11064 12.5142 5.27149 12.5C5.35698 12.4943 5.44273 12.5063 5.5234 12.5351C5.60408 12.564 5.67796 12.6091 5.74045 12.6677C5.80295 12.7264 5.85272 12.7972 5.88669 12.8759C5.92065 12.9545 5.93809 13.0393 5.9379 13.125V14.375ZM5.9379 10C5.93809 10.0857 5.92065 10.1705 5.88669 10.2491C5.85272 10.3278 5.80295 10.3986 5.74045 10.4573C5.67796 10.5159 5.60408 10.561 5.5234 10.5899C5.44273 10.6187 5.35698 10.6307 5.27149 10.625C5.1105 10.6108 4.96085 10.5362 4.85259 10.4162C4.74434 10.2962 4.6855 10.1397 4.6879 9.97812V8.77109C4.6857 8.60963 4.74462 8.45331 4.85286 8.33348C4.9611 8.21365 5.11064 8.13918 5.27149 8.125C5.35698 8.11932 5.44273 8.13128 5.5234 8.16014C5.60408 8.189 5.67796 8.23414 5.74045 8.29275C5.80295 8.35136 5.85272 8.4222 5.88669 8.50086C5.92065 8.57952 5.93809 8.66432 5.9379 8.75V10ZM9.0629 14.375C9.06308 14.4607 9.04566 14.5455 9.01169 14.6241C8.97772 14.7028 8.92795 14.7736 8.86545 14.8323C8.80295 14.8909 8.72908 14.936 8.6484 14.9649C8.56773 14.9937 8.48198 15.0057 8.39649 15C8.23571 14.986 8.08617 14.9117 7.97792 14.792C7.86966 14.6723 7.81071 14.5161 7.8129 14.3547V13.1461C7.81089 12.9848 7.86991 12.8286 7.97813 12.709C8.08635 12.5893 8.23578 12.515 8.39649 12.5008C8.48198 12.4951 8.56773 12.5071 8.6484 12.5359C8.72908 12.5648 8.80295 12.6099 8.86545 12.6685C8.92795 12.7271 8.97772 12.798 9.01169 12.8766C9.04566 12.9553 9.06308 13.0401 9.0629 13.1258V14.375ZM9.0629 10C9.06308 10.0857 9.04566 10.1705 9.01169 10.2491C8.97772 10.3278 8.92795 10.3986 8.86545 10.4573C8.80295 10.5159 8.72908 10.561 8.6484 10.5899C8.56773 10.6187 8.48198 10.6307 8.39649 10.625C8.23578 10.6108 8.08635 10.5365 7.97813 10.4168C7.86991 10.2971 7.81089 10.141 7.8129 9.97969V8.77109C7.81089 8.60977 7.86991 8.45364 7.97813 8.33398C8.08635 8.21431 8.23578 8.13995 8.39649 8.12578C8.48198 8.1201 8.56773 8.13207 8.6484 8.16092C8.72908 8.18978 8.80295 8.23492 8.86545 8.29353C8.92795 8.35214 8.97772 8.42298 9.01169 8.50164C9.04566 8.5803 9.06308 8.6651 9.0629 8.75078V10Z" fill="#808080"/>
</g>
<defs>
<clipPath id="clip0_217_2015">
<rect width="20" height="20" fill="white"/>
</clipPath>
</defs>
</svg>
