<svg width="39" height="38" viewBox="0 0 39 38" fill="none" xmlns="http://www.w3.org/2000/svg">
<path d="M35.3337 9.89591V17.9709C35.3337 19.9817 34.6687 21.6759 33.4812 22.8476C32.3095 24.0351 30.6153 24.7001 28.6045 24.7001V27.5659C28.6045 28.6426 27.4012 29.2918 26.5145 28.6901L24.9787 27.6767C25.1212 27.1859 25.1845 26.6476 25.1845 26.0776V19.6334C25.1845 16.4034 23.0312 14.2501 19.8012 14.2501H9.05031C8.82864 14.2501 8.62283 14.2659 8.41699 14.2818V9.89591C8.41699 5.85841 11.1087 3.16675 15.1462 3.16675H28.6045C32.642 3.16675 35.3337 5.85841 35.3337 9.89591Z" stroke="#00B8F0" stroke-width="1.5" stroke-miterlimit="10" stroke-linecap="round" stroke-linejoin="round"/>
<path d="M25.1845 19.6333V26.0775C25.1845 26.6475 25.1212 27.1858 24.9787 27.6767C24.3928 30.0042 22.4612 31.4608 19.8012 31.4608H15.4945L10.7128 34.6433C10.0003 35.1342 9.05031 34.6117 9.05031 33.7567V31.4608C7.43531 31.4608 6.08949 30.9225 5.15533 29.9883C4.20533 29.0383 3.66699 27.6925 3.66699 26.0775V19.6333C3.66699 16.625 5.53533 14.5509 8.41699 14.2817C8.62283 14.2659 8.82864 14.25 9.05031 14.25H19.8012C23.0312 14.25 25.1845 16.4033 25.1845 19.6333Z" fill="url(#paint0_linear_217_956)" stroke="#00B8F0" stroke-width="1.5" stroke-miterlimit="10" stroke-linecap="round" stroke-linejoin="round"/>
<defs>
<linearGradient id="paint0_linear_217_956" x1="3.66699" y1="14.25" x2="26.105" y2="15.3078" gradientUnits="userSpaceOnUse">
<stop stop-color="#00B8F0"/>
<stop offset="1" stop-color="#33A8E8"/>
</linearGradient>
</defs>
</svg>
