<svg width="38" height="38" viewBox="0 0 38 38" fill="none" xmlns="http://www.w3.org/2000/svg">
<path d="M34.8337 9.89579V17.9708C34.8337 19.9816 34.1687 21.6758 32.9812 22.8475C31.8095 24.035 30.1153 24.7 28.1045 24.7V27.5658C28.1045 28.6425 26.9012 29.2916 26.0145 28.69L24.4787 27.6766C24.6212 27.1858 24.6845 26.6475 24.6845 26.0775V19.6333C24.6845 16.4033 22.5312 14.25 19.3012 14.25H8.55031C8.32864 14.25 8.12283 14.2658 7.91699 14.2817V9.89579C7.91699 5.85829 10.6087 3.16663 14.6462 3.16663H28.1045C32.142 3.16663 34.8337 5.85829 34.8337 9.89579Z" stroke="#1F506A" stroke-width="1.5" stroke-miterlimit="10" stroke-linecap="round" stroke-linejoin="round"/>
<path d="M24.6845 19.6333V26.0775C24.6845 26.6475 24.6212 27.1858 24.4787 27.6767C23.8928 30.0042 21.9612 31.4608 19.3012 31.4608H14.9945L10.2128 34.6433C9.50032 35.1342 8.55031 34.6117 8.55031 33.7567V31.4608C6.93531 31.4608 5.58949 30.9225 4.65533 29.9883C3.70533 29.0383 3.16699 27.6925 3.16699 26.0775V19.6333C3.16699 16.625 5.03533 14.5509 7.91699 14.2817C8.12283 14.2659 8.32864 14.25 8.55031 14.25H19.3012C22.5312 14.25 24.6845 16.4033 24.6845 19.6333Z" fill="#1F506A" stroke="#1F506A" stroke-width="1.5" stroke-miterlimit="10" stroke-linecap="round" stroke-linejoin="round"/>
</svg>
