<svg width="38" height="38" viewBox="0 0 38 38" fill="none" xmlns="http://www.w3.org/2000/svg">
<path d="M33.25 7.125H4.75C4.43506 7.125 4.13301 7.25011 3.91031 7.47281C3.68761 7.69551 3.5625 7.99756 3.5625 8.3125V28.5C3.5625 29.1299 3.81272 29.734 4.25812 30.1794C4.70352 30.6248 5.30761 30.875 5.9375 30.875H32.0625C32.6924 30.875 33.2965 30.6248 33.7419 30.1794C34.1873 29.734 34.4375 29.1299 34.4375 28.5V8.3125C34.4375 7.99756 34.3124 7.69551 34.0897 7.47281C33.867 7.25011 33.5649 7.125 33.25 7.125ZM5.9375 16.625H11.875V21.375H5.9375V16.625ZM14.25 16.625H32.0625V21.375H14.25V16.625ZM5.9375 23.75H11.875V28.5H5.9375V23.75ZM32.0625 28.5H14.25V23.75H32.0625V28.5Z" fill="#1F506A"/>
</svg>
