<svg width="31" height="24" viewBox="0 0 31 24" fill="none" xmlns="http://www.w3.org/2000/svg">
<path d="M29.75 0.125H1.25C0.935055 0.125 0.63301 0.250111 0.410311 0.472811C0.187611 0.69551 0.0625 0.997555 0.0625 1.3125V21.5C0.0625 22.1299 0.312722 22.734 0.758121 23.1794C1.20352 23.6248 1.80761 23.875 2.4375 23.875H28.5625C29.1924 23.875 29.7965 23.6248 30.2419 23.1794C30.6873 22.734 30.9375 22.1299 30.9375 21.5V1.3125C30.9375 0.997555 30.8124 0.69551 30.5897 0.472811C30.367 0.250111 30.0649 0.125 29.75 0.125ZM2.4375 9.625H8.375V14.375H2.4375V9.625ZM10.75 9.625H28.5625V14.375H10.75V9.625ZM2.4375 16.75H8.375V21.5H2.4375V16.75ZM28.5625 21.5H10.75V16.75H28.5625V21.5Z" fill="#00B8F0"/>
</svg>
