<svg width="38" height="38" viewBox="0 0 38 38" fill="none" xmlns="http://www.w3.org/2000/svg">
<path d="M0 19C0 8.50659 8.50659 0 19 0C29.4934 0 38 8.50659 38 19V33C38 35.7614 35.7614 38 33 38H19C8.50659 38 0 29.4934 0 19Z" fill="url(#paint0_linear_217_2070)"/>
<g clip-path="url(#clip0_217_2070)">
<path d="M22.8972 13.8053C22.2184 12.2162 21.0118 10.9102 19.4812 10.1082C17.9506 9.3061 16.1901 9.05715 14.4971 9.40341C12.8042 9.74967 11.2827 10.6699 10.19 12.0085C9.09727 13.3471 8.5003 15.022 8.5 16.75V22.9375C8.5 23.2856 8.63828 23.6194 8.88442 23.8656C9.13056 24.1117 9.4644 24.25 9.8125 24.25H15.1253C15.7106 25.5865 16.6723 26.7238 17.8931 27.5229C19.1139 28.322 20.5409 28.7484 22 28.75H28.1875C28.5356 28.75 28.8694 28.6117 29.1156 28.3656C29.3617 28.1194 29.5 27.7856 29.5 27.4375V21.25C29.4996 19.4165 28.8277 17.6466 27.6111 16.2749C26.3945 14.9032 24.7175 14.0246 22.8972 13.8053ZM28 27.25H22C20.939 27.2488 19.8973 26.9669 18.9805 26.4329C18.0637 25.8989 17.3045 25.1319 16.78 24.2097C17.8072 24.1031 18.8013 23.7853 19.6999 23.2763C20.5985 22.7673 21.3822 22.078 22.0018 21.2517C22.6213 20.4255 23.0634 19.48 23.3003 18.4748C23.5371 17.4696 23.5636 16.4263 23.3781 15.4103C24.6937 15.7208 25.8659 16.4664 26.7048 17.5263C27.5436 18.5862 28 19.8983 28 21.25V27.25Z" fill="white"/>
</g>
<defs>
<linearGradient id="paint0_linear_217_2070" x1="0" y1="0" x2="39.633" y2="1.78724" gradientUnits="userSpaceOnUse">
<stop stop-color="#0EBAEE"/>
<stop offset="1" stop-color="#1997DB"/>
</linearGradient>
<clipPath id="clip0_217_2070">
<rect width="24" height="24" fill="white" transform="translate(7 7)"/>
</clipPath>
</defs>
</svg>
