<svg width="28" height="28" viewBox="0 0 28 28" fill="none" xmlns="http://www.w3.org/2000/svg">
<path opacity="0.2" d="M23.625 14.875V23.625H4.375V9.625L11.375 14.875V9.625L18.375 14.875H23.625Z" fill="#151616"/>
<path d="M12.6875 19.25C12.6875 19.4821 12.5953 19.7046 12.4312 19.8687C12.2671 20.0328 12.0446 20.125 11.8125 20.125H8.75C8.51794 20.125 8.29538 20.0328 8.13128 19.8687C7.96719 19.7046 7.875 19.4821 7.875 19.25C7.875 19.0179 7.96719 18.7954 8.13128 18.6313C8.29538 18.4672 8.51794 18.375 8.75 18.375H11.8125C12.0446 18.375 12.2671 18.4672 12.4312 18.6313C12.5953 18.7954 12.6875 19.0179 12.6875 19.25ZM19.25 18.375H16.1875C15.9554 18.375 15.7329 18.4672 15.5688 18.6313C15.4047 18.7954 15.3125 19.0179 15.3125 19.25C15.3125 19.4821 15.4047 19.7046 15.5688 19.8687C15.7329 20.0328 15.9554 20.125 16.1875 20.125H19.25C19.4821 20.125 19.7046 20.0328 19.8687 19.8687C20.0328 19.7046 20.125 19.4821 20.125 19.25C20.125 19.0179 20.0328 18.7954 19.8687 18.6313C19.7046 18.4672 19.4821 18.375 19.25 18.375ZM27.125 23.625C27.125 23.8571 27.0328 24.0796 26.8687 24.2437C26.7046 24.4078 26.4821 24.5 26.25 24.5H1.75C1.51794 24.5 1.29538 24.4078 1.13128 24.2437C0.967187 24.0796 0.875 23.8571 0.875 23.625C0.875 23.3929 0.967187 23.1704 1.13128 23.0063C1.29538 22.8422 1.51794 22.75 1.75 22.75H3.5V9.625C3.5 9.4625 3.54525 9.30321 3.63068 9.16499C3.71611 9.02676 3.83835 8.91505 3.98369 8.84238C4.12903 8.7697 4.29174 8.73894 4.45358 8.75354C4.61542 8.76813 4.77 8.8275 4.9 8.925L10.5 13.125V9.625C10.5 9.4625 10.5452 9.30321 10.6307 9.16499C10.7161 9.02676 10.8383 8.91505 10.9837 8.84238C11.129 8.7697 11.2917 8.73894 11.4536 8.75354C11.6154 8.76813 11.77 8.8275 11.9 8.925L16.1372 12.1023L17.4016 3.25281C17.4628 2.83648 17.6713 2.4559 17.9892 2.18016C18.307 1.90442 18.7133 1.7518 19.1341 1.75H21.1159C21.5367 1.7518 21.943 1.90442 22.2608 2.18016C22.5787 2.4559 22.7872 2.83648 22.8484 3.25281L24.4891 14.7514C24.4891 14.7514 24.4978 14.8367 24.4978 14.875V22.75H26.2478C26.3629 22.7497 26.4769 22.7721 26.5833 22.816C26.6897 22.8598 26.7865 22.9242 26.8679 23.0055C26.9494 23.0868 27.0141 23.1833 27.0582 23.2896C27.1023 23.3959 27.125 23.5099 27.125 23.625ZM17.7341 13.3L18.667 14H22.6166L21.1159 3.5H19.1341L17.7341 13.3ZM5.25 22.75H22.75V15.75H18.375C18.1857 15.75 18.0015 15.6886 17.85 15.575L16.275 14.3938L12.25 11.375V14.875C12.25 15.0375 12.2048 15.1968 12.1193 15.335C12.0339 15.4732 11.9117 15.585 11.7663 15.6576C11.621 15.7303 11.4583 15.7611 11.2964 15.7465C11.1346 15.7319 10.98 15.6725 10.85 15.575L5.25 11.375V22.75Z" fill="#151616"/>
</svg>
