<svg width="28" height="28" viewBox="0 0 28 28" fill="none" xmlns="http://www.w3.org/2000/svg">
<path opacity="0.2" d="M24.5 10.5V12.25C24.5 13.1783 24.1313 14.0685 23.4749 14.7249C22.8185 15.3813 21.9283 15.75 21 15.75C20.0717 15.75 19.1815 15.3813 18.5251 14.7249C17.8687 14.0685 17.5 13.1783 17.5 12.25V10.5H10.5V12.25C10.5 13.1783 10.1313 14.0685 9.47487 14.7249C8.8185 15.3813 7.92826 15.75 7 15.75C6.07174 15.75 5.1815 15.3813 4.52513 14.7249C3.86875 14.0685 3.5 13.1783 3.5 12.25V10.5L5.06844 5.00937C5.12055 4.82717 5.23041 4.66681 5.3815 4.5524C5.53259 4.438 5.71674 4.37575 5.90625 4.375H22.0938C22.2838 4.37504 22.4687 4.43697 22.6205 4.55142C22.7722 4.66587 22.8826 4.82663 22.9348 5.00937L24.5 10.5Z" fill="#151616"/>
<path d="M25.375 10.5C25.3755 10.4186 25.3644 10.3376 25.3422 10.2594L23.7727 4.76875C23.6672 4.40444 23.4467 4.08402 23.1441 3.85535C22.8415 3.62668 22.473 3.50203 22.0938 3.5H5.90625C5.52698 3.50203 5.15853 3.62668 4.85594 3.85535C4.55335 4.08402 4.33284 4.40444 4.22734 4.76875L2.65891 10.2594C2.63631 10.3376 2.6249 10.4186 2.625 10.5V12.25C2.625 12.9292 2.78314 13.5991 3.08688 14.2066C3.39063 14.8141 3.83164 15.3425 4.375 15.75V22.75C4.375 23.2141 4.55938 23.6592 4.88756 23.9874C5.21575 24.3156 5.66087 24.5 6.125 24.5H21.875C22.3391 24.5 22.7842 24.3156 23.1124 23.9874C23.4406 23.6592 23.625 23.2141 23.625 22.75V15.75C24.1684 15.3425 24.6094 14.8141 24.9131 14.2066C25.2169 13.5991 25.375 12.9292 25.375 12.25V10.5ZM5.90625 5.25H22.0938L23.3428 9.625H4.66047L5.90625 5.25ZM11.375 11.375H16.625V12.25C16.625 12.9462 16.3484 13.6139 15.8562 14.1062C15.3639 14.5984 14.6962 14.875 14 14.875C13.3038 14.875 12.6361 14.5984 12.1438 14.1062C11.6516 13.6139 11.375 12.9462 11.375 12.25V11.375ZM9.625 11.375V12.25C9.625 12.9462 9.34844 13.6139 8.85616 14.1062C8.36387 14.5984 7.69619 14.875 7 14.875C6.30381 14.875 5.63613 14.5984 5.14385 14.1062C4.65156 13.6139 4.375 12.9462 4.375 12.25V11.375H9.625ZM21.875 22.75H6.125V16.5375C6.41305 16.5956 6.70616 16.6249 7 16.625C7.6792 16.625 8.34907 16.4669 8.95656 16.1631C9.56405 15.8594 10.0925 15.4184 10.5 14.875C10.9075 15.4184 11.4359 15.8594 12.0434 16.1631C12.6509 16.4669 13.3208 16.625 14 16.625C14.6792 16.625 15.3491 16.4669 15.9566 16.1631C16.5641 15.8594 17.0925 15.4184 17.5 14.875C17.9075 15.4184 18.4359 15.8594 19.0434 16.1631C19.6509 16.4669 20.3208 16.625 21 16.625C21.2938 16.6249 21.587 16.5956 21.875 16.5375V22.75ZM21 14.875C20.3038 14.875 19.6361 14.5984 19.1438 14.1062C18.6516 13.6139 18.375 12.9462 18.375 12.25V11.375H23.625V12.25C23.625 12.9462 23.3484 13.6139 22.8562 14.1062C22.3639 14.5984 21.6962 14.875 21 14.875Z" fill="#151616"/>
</svg>
