<svg width="28" height="28" viewBox="0 0 28 28" fill="none" xmlns="http://www.w3.org/2000/svg">
<path opacity="0.2" d="M14.875 3.50003V23.625H4.375V9.33519C4.37491 9.19109 4.4104 9.04921 4.47833 8.92213C4.54625 8.79506 4.64451 8.68672 4.76438 8.60675L13.5144 2.77378C13.646 2.68594 13.799 2.63546 13.9571 2.6277C14.1152 2.61994 14.2724 2.6552 14.412 2.72973C14.5516 2.80425 14.6684 2.91525 14.75 3.0509C14.8315 3.18654 14.8747 3.34177 14.875 3.50003Z" fill="#151616"/>
<path d="M26.25 22.75H24.5V10.5C24.5 10.0358 24.3156 9.59073 23.9874 9.26254C23.6592 8.93435 23.2141 8.74998 22.75 8.74998H15.75V3.49998C15.7502 3.18308 15.6644 2.87207 15.5016 2.60015C15.3389 2.32823 15.1054 2.1056 14.826 1.95603C14.5466 1.80646 14.2318 1.73556 13.9153 1.75089C13.5988 1.76623 13.2924 1.86722 13.0288 2.0431L4.27875 7.87498C4.03871 8.03512 3.84201 8.25214 3.70614 8.50671C3.57027 8.76127 3.49945 9.04548 3.5 9.33404V22.75H1.75C1.51794 22.75 1.29538 22.8422 1.13128 23.0063C0.967187 23.1704 0.875 23.3929 0.875 23.625C0.875 23.857 0.967187 24.0796 1.13128 24.2437C1.29538 24.4078 1.51794 24.5 1.75 24.5H26.25C26.4821 24.5 26.7046 24.4078 26.8687 24.2437C27.0328 24.0796 27.125 23.857 27.125 23.625C27.125 23.3929 27.0328 23.1704 26.8687 23.0063C26.7046 22.8422 26.4821 22.75 26.25 22.75ZM22.75 10.5V22.75H15.75V10.5H22.75ZM5.25 9.33404L14 3.49998V22.75H5.25V9.33404ZM12.25 12.25V14C12.25 14.232 12.1578 14.4546 11.9937 14.6187C11.8296 14.7828 11.6071 14.875 11.375 14.875C11.1429 14.875 10.9204 14.7828 10.7563 14.6187C10.5922 14.4546 10.5 14.232 10.5 14V12.25C10.5 12.0179 10.5922 11.7954 10.7563 11.6313C10.9204 11.4672 11.1429 11.375 11.375 11.375C11.6071 11.375 11.8296 11.4672 11.9937 11.6313C12.1578 11.7954 12.25 12.0179 12.25 12.25ZM8.75 12.25V14C8.75 14.232 8.65781 14.4546 8.49372 14.6187C8.32962 14.7828 8.10706 14.875 7.875 14.875C7.64294 14.875 7.42038 14.7828 7.25628 14.6187C7.09219 14.4546 7 14.232 7 14V12.25C7 12.0179 7.09219 11.7954 7.25628 11.6313C7.42038 11.4672 7.64294 11.375 7.875 11.375C8.10706 11.375 8.32962 11.4672 8.49372 11.6313C8.65781 11.7954 8.75 12.0179 8.75 12.25ZM8.75 18.375V20.125C8.75 20.357 8.65781 20.5796 8.49372 20.7437C8.32962 20.9078 8.10706 21 7.875 21C7.64294 21 7.42038 20.9078 7.25628 20.7437C7.09219 20.5796 7 20.357 7 20.125V18.375C7 18.1429 7.09219 17.9204 7.25628 17.7563C7.42038 17.5922 7.64294 17.5 7.875 17.5C8.10706 17.5 8.32962 17.5922 8.49372 17.7563C8.65781 17.9204 8.75 18.1429 8.75 18.375ZM12.25 18.375V20.125C12.25 20.357 12.1578 20.5796 11.9937 20.7437C11.8296 20.9078 11.6071 21 11.375 21C11.1429 21 10.9204 20.9078 10.7563 20.7437C10.5922 20.5796 10.5 20.357 10.5 20.125V18.375C10.5 18.1429 10.5922 17.9204 10.7563 17.7563C10.9204 17.5922 11.1429 17.5 11.375 17.5C11.6071 17.5 11.8296 17.5922 11.9937 17.7563C12.1578 17.9204 12.25 18.1429 12.25 18.375Z" fill="#151616"/>
</svg>
