<svg width="38" height="38" viewBox="0 0 38 38" fill="none" xmlns="http://www.w3.org/2000/svg">
<path d="M0 19C0 8.50659 8.50659 0 19 0C29.4934 0 38 8.50659 38 19V33C38 35.7614 35.7614 38 33 38H19C8.50659 38 0 29.4934 0 19Z" fill="url(#paint0_linear_217_2078)"/>
<g clip-path="url(#clip0_217_2078)">
<path d="M25 13.75H21.2687C20.9959 13.7341 16.2419 13.3994 11.7147 9.6025C11.4961 9.4189 11.2296 9.30149 10.9466 9.26408C10.6635 9.22667 10.3757 9.2708 10.1169 9.3913C9.85807 9.5118 9.63902 9.70366 9.48546 9.94433C9.3319 10.185 9.25022 10.4645 9.25 10.75V25.75C9.25004 26.0356 9.3316 26.3152 9.48508 26.556C9.63857 26.7968 9.85761 26.9888 10.1165 27.1094C10.3753 27.2301 10.6632 27.2743 10.9463 27.2369C11.2294 27.1995 11.496 27.0821 11.7147 26.8984C15.2556 23.9284 18.9334 23.0772 20.5 22.8391V25.8128C20.4997 26.06 20.5605 26.3034 20.6769 26.5214C20.7934 26.7395 20.9619 26.9253 21.1675 27.0625L22.1987 27.7497C22.3981 27.8827 22.6264 27.9661 22.8645 27.9927C23.1027 28.0194 23.3438 27.9886 23.5676 27.903C23.7914 27.8173 23.9914 27.6793 24.151 27.5004C24.3105 27.3216 24.4248 27.1071 24.4844 26.875L25.5878 22.7163C26.7285 22.5761 27.7724 22.0048 28.5053 21.1196C29.2382 20.2344 29.6046 19.1023 29.5295 17.9555C29.4543 16.8086 28.9432 15.7341 28.1009 14.9521C27.2587 14.1701 26.1492 13.74 25 13.75ZM23.0312 26.4897V26.5L22 25.8128V22.75H24.025L23.0312 26.4897ZM25 21.25H22V15.25H25C25.7956 15.25 26.5587 15.5661 27.1213 16.1287C27.6839 16.6913 28 17.4544 28 18.25C28 19.0457 27.6839 19.8087 27.1213 20.3713C26.5587 20.9339 25.7956 21.25 25 21.25Z" fill="white"/>
</g>
<defs>
<linearGradient id="paint0_linear_217_2078" x1="0" y1="0" x2="39.633" y2="1.78724" gradientUnits="userSpaceOnUse">
<stop stop-color="#0EBAEE"/>
<stop offset="1" stop-color="#1997DB"/>
</linearGradient>
<clipPath id="clip0_217_2078">
<rect width="24" height="24" fill="white" transform="translate(7 7)"/>
</clipPath>
</defs>
</svg>
