<svg width="31" height="32" viewBox="0 0 31 32" fill="none" xmlns="http://www.w3.org/2000/svg">
<path d="M19.1486 18.5576L22.5627 20.2617C22.4008 21.0703 21.9634 21.7977 21.3251 22.3199C20.6869 22.8421 19.8872 23.1266 19.0625 23.125C16.229 23.1219 13.5124 21.9949 11.5088 19.9912C9.50515 17.9876 8.37814 15.2711 8.375 12.4375C8.37477 11.6139 8.65995 10.8156 9.182 10.1785C9.70405 9.54144 10.4307 9.10494 11.2384 8.9433L12.9424 12.3574L11.4922 14.5156C11.3838 14.6782 11.3172 14.865 11.2983 15.0594C11.2794 15.2539 11.3088 15.45 11.3838 15.6304C12.2335 17.6497 13.8399 19.2562 15.8592 20.1058C16.0402 20.1842 16.2378 20.2162 16.4342 20.1991C16.6306 20.182 16.8197 20.1163 16.9844 20.0078L19.1486 18.5576ZM30.9375 16C30.9381 18.6653 30.2486 21.2853 28.9362 23.605C27.6238 25.9247 25.7332 27.8651 23.4484 29.2374C21.1636 30.6097 18.5624 31.367 15.898 31.4358C13.2337 31.5045 10.5969 30.8822 8.24438 29.6295L3.19008 31.3143C2.77161 31.4539 2.32255 31.4741 1.89322 31.3728C1.46389 31.2715 1.07126 31.0526 0.759341 30.7407C0.447421 30.4288 0.228534 30.0361 0.127215 29.6068C0.025896 29.1775 0.0461486 28.7284 0.185703 28.3099L1.87047 23.2556C0.769283 21.1853 0.15423 18.8913 0.071996 16.5477C-0.0102379 14.2042 0.442508 11.8727 1.39587 9.73021C2.34923 7.58776 3.77815 5.69065 5.57416 4.18289C7.37017 2.67513 9.48607 1.59635 11.7613 1.02842C14.0364 0.460499 16.4111 0.418362 18.705 0.905211C20.9989 1.39206 23.1518 2.3951 25.0001 3.83819C26.8485 5.28128 28.3438 7.1265 29.3726 9.23378C30.4014 11.3411 30.9365 13.655 30.9375 16ZM25 19.5625C25.0002 19.3419 24.9389 19.1256 24.823 18.9379C24.7071 18.7502 24.5412 18.5984 24.3439 18.4997L19.5939 16.1247C19.4069 16.0315 19.1987 15.9893 18.9902 16.0024C18.7817 16.0154 18.5803 16.0832 18.4064 16.1989L16.2259 17.6536C15.2249 17.1033 14.4011 16.2796 13.8509 15.2786L15.3055 13.0981C15.4213 12.9241 15.4891 12.7228 15.5021 12.5143C15.5151 12.3058 15.4729 12.0975 15.3798 11.9106L13.0048 7.16056C12.9063 6.96176 12.7542 6.79451 12.5655 6.67776C12.3769 6.56101 12.1593 6.49944 11.9375 6.50002C10.3628 6.50002 8.85255 7.12557 7.73905 8.23907C6.62556 9.35257 6 10.8628 6 12.4375C6.00393 15.9007 7.38141 19.2209 9.83026 21.6698C12.2791 24.1186 15.5993 25.4961 19.0625 25.5C19.8422 25.5 20.6143 25.3464 21.3347 25.048C22.0551 24.7497 22.7096 24.3123 23.2609 23.761C23.8123 23.2096 24.2496 22.5551 24.548 21.8347C24.8464 21.1143 25 20.3422 25 19.5625Z" fill="#00B8F0"/>
</svg>
