<svg width="39" height="38" viewBox="0 0 39 38" fill="none" xmlns="http://www.w3.org/2000/svg">
<path d="M35.1935 18.0666C34.6552 8.88327 26.311 1.80579 16.7002 3.38913C10.0819 4.48163 4.77773 9.84907 3.74857 16.4674C3.1469 20.2991 3.93861 23.9249 5.66443 26.9174L4.25525 32.1583C3.93858 33.3458 5.03105 34.4224 6.20271 34.0899L11.3644 32.6649C13.7077 34.0424 16.4469 34.8341 19.3761 34.8341C28.3061 34.8341 35.716 26.9649 35.1935 18.0666ZM27.1186 24.8908C26.9761 25.1758 26.8019 25.4449 26.5802 25.6983C26.1844 26.1258 25.7569 26.4424 25.2819 26.6324C24.8069 26.8383 24.2844 26.9333 23.7302 26.9333C22.9227 26.9333 22.0519 26.7433 21.1494 26.3474C20.231 25.9517 19.3286 25.4291 18.4261 24.7799C17.5077 24.1149 16.6527 23.3708 15.8294 22.5633C15.0061 21.7399 14.2777 20.8691 13.6127 19.9666C12.9635 19.0641 12.4411 18.1616 12.0611 17.2591C11.6811 16.3566 11.4911 15.4858 11.4911 14.6624C11.4911 14.1241 11.5861 13.6016 11.7761 13.1266C11.9661 12.6358 12.267 12.1924 12.6945 11.7967C13.2011 11.2899 13.7552 11.0524 14.3411 11.0524C14.5627 11.0524 14.7844 11.0999 14.9902 11.1949C15.196 11.2899 15.3861 11.4324 15.5286 11.6383L17.3652 14.2349C17.5077 14.4407 17.6185 14.6149 17.6819 14.7891C17.761 14.9633 17.7927 15.1216 17.7927 15.2799C17.7927 15.4699 17.7294 15.6599 17.6186 15.8499C17.5077 16.0399 17.3652 16.2299 17.1752 16.4199L16.5735 17.0532C16.4785 17.1482 16.447 17.2433 16.447 17.3699C16.447 17.4333 16.4627 17.4966 16.4785 17.5599C16.5102 17.6233 16.5261 17.6708 16.542 17.7183C16.6845 17.9874 16.9377 18.3199 17.286 18.7316C17.6502 19.1432 18.0302 19.5708 18.442 19.9824C18.8695 20.4099 19.2811 20.7899 19.7086 21.1541C20.1202 21.5024 20.4685 21.7399 20.7377 21.8824C20.7852 21.8983 20.8327 21.9299 20.8802 21.9457C20.9436 21.9774 21.0069 21.9774 21.0861 21.9774C21.2286 21.9774 21.3236 21.9299 21.4186 21.8349L22.0202 21.2333C22.226 21.0274 22.4161 20.8849 22.5902 20.7899C22.7802 20.6791 22.9544 20.6157 23.1602 20.6157C23.3186 20.6157 23.4769 20.6474 23.6511 20.7266C23.8252 20.8058 24.0152 20.9008 24.2052 21.0433L26.8336 22.9116C27.0395 23.0541 27.1819 23.2283 27.2769 23.4183C27.356 23.6241 27.4036 23.8141 27.4036 24.0358C27.3086 24.3049 27.2452 24.6058 27.1186 24.8908Z" fill="#1F506A"/>
</svg>
