<svg width="40" height="38" viewBox="0 0 40 38" fill="none" xmlns="http://www.w3.org/2000/svg">
<path d="M35.6935 18.0663C35.1552 8.88303 26.811 1.80555 17.2002 3.38888C10.5819 4.48138 5.27773 9.84883 4.24857 16.4672C3.6469 20.2988 4.43861 23.9247 6.16443 26.9172L4.75525 32.1581C4.43858 33.3456 5.53105 34.4222 6.70271 34.0897L11.8644 32.6647C14.2077 34.0422 16.9469 34.8338 19.8761 34.8338C28.8061 34.8338 36.216 26.9647 35.6935 18.0663ZM27.6186 24.8906C27.4761 25.1756 27.3019 25.4447 27.0802 25.6981C26.6844 26.1256 26.2569 26.4422 25.7819 26.6322C25.3069 26.8381 24.7844 26.9331 24.2302 26.9331C23.4227 26.9331 22.5519 26.7431 21.6494 26.3472C20.731 25.9514 19.8286 25.4288 18.9261 24.7797C18.0077 24.1147 17.1527 23.3706 16.3294 22.5631C15.5061 21.7397 14.7777 20.8688 14.1127 19.9663C13.4635 19.0638 12.9411 18.1613 12.5611 17.2588C12.1811 16.3563 11.9911 15.4856 11.9911 14.6622C11.9911 14.1238 12.0861 13.6013 12.2761 13.1263C12.4661 12.6356 12.767 12.1922 13.1945 11.7964C13.7011 11.2897 14.2552 11.0522 14.8411 11.0522C15.0627 11.0522 15.2844 11.0997 15.4902 11.1947C15.696 11.2897 15.8861 11.4322 16.0286 11.6381L17.8652 14.2347C18.0077 14.4405 18.1185 14.6147 18.1819 14.7888C18.261 14.9631 18.2927 15.1213 18.2927 15.2797C18.2927 15.4697 18.2294 15.6597 18.1186 15.8497C18.0077 16.0397 17.8652 16.2297 17.6752 16.4197L17.0735 17.053C16.9785 17.148 16.947 17.2431 16.947 17.3697C16.947 17.4331 16.9627 17.4963 16.9785 17.5597C17.0102 17.6231 17.0261 17.6706 17.042 17.7181C17.1845 17.9872 17.4377 18.3197 17.786 18.7313C18.1502 19.143 18.5302 19.5706 18.942 19.9822C19.3695 20.4097 19.7811 20.7897 20.2086 21.1538C20.6202 21.5022 20.9685 21.7397 21.2377 21.8822C21.2852 21.8981 21.3327 21.9297 21.3802 21.9455C21.4436 21.9772 21.5069 21.9772 21.5861 21.9772C21.7286 21.9772 21.8236 21.9297 21.9186 21.8347L22.5202 21.2331C22.726 21.0272 22.9161 20.8847 23.0902 20.7897C23.2802 20.6788 23.4544 20.6155 23.6602 20.6155C23.8186 20.6155 23.9769 20.6472 24.1511 20.7263C24.3252 20.8056 24.5152 20.9006 24.7052 21.0431L27.3336 22.9113C27.5395 23.0538 27.6819 23.2281 27.7769 23.4181C27.856 23.6238 27.9036 23.8138 27.9036 24.0356C27.8086 24.3047 27.7452 24.6056 27.6186 24.8906Z" fill="#00B8F0"/>
</svg>
