<svg xmlns="http://www.w3.org/2000/svg" width="21" height="21" viewBox="0 0 21 21" fill="none">
<path d="M12.8044 12.1153L14.9606 13.1916C14.8584 13.7023 14.5822 14.1617 14.179 14.4915C13.7759 14.8213 13.2708 15.001 12.75 15C10.9604 14.998 9.24466 14.2862 7.97922 13.0208C6.71378 11.7554 6.00198 10.0396 6 8.25003C5.99985 7.72983 6.17997 7.22565 6.50968 6.82329C6.8394 6.42093 7.29835 6.14524 7.80844 6.04315L8.88469 8.1994L7.96875 9.56253C7.90031 9.6652 7.85825 9.78317 7.84631 9.90598C7.83437 10.0288 7.85292 10.1527 7.90031 10.2666C8.43692 11.542 9.45152 12.5565 10.7269 13.0932C10.8411 13.1426 10.966 13.1629 11.09 13.1521C11.2141 13.1413 11.3335 13.0998 11.4375 13.0313L12.8044 12.1153ZM20.25 10.5C20.2504 12.1833 19.8149 13.8381 18.986 15.3032C18.1572 16.7683 16.9631 17.9938 15.52 18.8605C14.077 19.7272 12.4341 20.2055 10.7514 20.2489C9.06863 20.2923 7.4033 19.8993 5.9175 19.1082L2.72531 20.1722C2.46102 20.2604 2.1774 20.2731 1.90624 20.2092C1.63509 20.1452 1.38711 20.0069 1.19011 19.8099C0.993108 19.6129 0.854864 19.3649 0.790873 19.0938C0.726882 18.8226 0.739673 18.539 0.827812 18.2747L1.89187 15.0825C1.19639 13.7749 0.807935 12.3261 0.755998 10.8459C0.70406 9.3658 0.990005 7.89328 1.59213 6.54015C2.19425 5.18703 3.09672 3.98885 4.23105 3.03658C5.36537 2.08431 6.70173 1.40298 8.13869 1.04429C9.57565 0.685598 11.0754 0.658985 12.5242 0.966468C13.973 1.27395 15.3327 1.90745 16.5001 2.81888C17.6675 3.7303 18.6119 4.8957 19.2616 6.22662C19.9114 7.55753 20.2494 9.01898 20.25 10.5ZM16.5 12.75C16.5001 12.6107 16.4614 12.4741 16.3882 12.3555C16.315 12.237 16.2102 12.1411 16.0856 12.0788L13.0856 10.5788C12.9675 10.5199 12.836 10.4933 12.7043 10.5015C12.5726 10.5097 12.4455 10.5526 12.3356 10.6257L10.9584 11.5444C10.3262 11.1969 9.80598 10.6766 9.45844 10.0444L10.3772 8.66722C10.4503 8.55737 10.4931 8.43019 10.5013 8.29851C10.5096 8.16683 10.4829 8.03531 10.4241 7.91722L8.92406 4.91722C8.86189 4.79166 8.76579 4.68603 8.64665 4.61229C8.52752 4.53855 8.39011 4.49967 8.25 4.50003C7.25544 4.50003 6.30161 4.89512 5.59835 5.59838C4.89509 6.30164 4.5 7.25547 4.5 8.25003C4.50248 10.4373 5.37247 12.5343 6.91911 14.0809C8.46575 15.6276 10.5627 16.4975 12.75 16.5C13.2425 16.5 13.7301 16.403 14.1851 16.2146C14.64 16.0261 15.0534 15.7499 15.4017 15.4017C15.7499 15.0535 16.0261 14.6401 16.2145 14.1851C16.403 13.7301 16.5 13.2425 16.5 12.75Z" fill="white"/>
</svg>