<svg width="38" height="38" viewBox="0 0 38 38" fill="none" xmlns="http://www.w3.org/2000/svg">
<path d="M22.6486 21.5576L26.0627 23.2617C25.9008 24.0703 25.4634 24.7977 24.8251 25.3199C24.1869 25.8421 23.3872 26.1266 22.5625 26.125C19.729 26.1219 17.0124 24.9949 15.0088 22.9912C13.0052 20.9876 11.8781 18.2711 11.875 15.4375C11.8748 14.6139 12.1599 13.8156 12.682 13.1785C13.2041 12.5414 13.9307 12.1049 14.7384 11.9433L16.4424 15.3574L14.9922 17.5156C14.8838 17.6782 14.8172 17.865 14.7983 18.0594C14.7794 18.2539 14.8088 18.45 14.8838 18.6304C15.7335 20.6497 17.3399 22.2562 19.3592 23.1058C19.5402 23.1842 19.7378 23.2162 19.9342 23.1991C20.1306 23.182 20.3197 23.1163 20.4844 23.0078L22.6486 21.5576ZM34.4375 19C34.4381 21.6653 33.7486 24.2853 32.4362 26.605C31.1238 28.9247 29.2332 30.8651 26.9484 32.2374C24.6636 33.6097 22.0624 34.367 19.398 34.4358C16.7337 34.5045 14.0969 33.8822 11.7444 32.6295L6.69008 34.3143C6.27161 34.4539 5.82255 34.4741 5.39322 34.3728C4.96389 34.2715 4.57126 34.0526 4.25934 33.7407C3.94742 33.4288 3.72853 33.0361 3.62722 32.6068C3.5259 32.1775 3.54615 31.7284 3.6857 31.3099L5.37047 26.2556C4.26928 24.1853 3.65423 21.8913 3.572 19.5477C3.48976 17.2042 3.94251 14.8727 4.89587 12.7302C5.84923 10.5878 7.27815 8.69065 9.07416 7.18289C10.8702 5.67513 12.9861 4.59635 15.2613 4.02842C17.5364 3.4605 19.9111 3.41836 22.205 3.90521C24.4989 4.39206 26.6518 5.3951 28.5001 6.83819C30.3485 8.28128 31.8438 10.1265 32.8726 12.2338C33.9014 14.3411 34.4365 16.655 34.4375 19ZM28.5 22.5625C28.5002 22.3419 28.4389 22.1256 28.323 21.9379C28.2071 21.7502 28.0412 21.5984 27.8439 21.4997L23.0939 19.1247C22.9069 19.0315 22.6987 18.9893 22.4902 19.0024C22.2817 19.0154 22.0803 19.0832 21.9064 19.1989L19.7259 20.6536C18.7249 20.1033 17.9011 19.2796 17.3509 18.2786L18.8055 16.0981C18.9213 15.9241 18.9891 15.7228 19.0021 15.5143C19.0151 15.3058 18.9729 15.0975 18.8798 14.9106L16.5048 10.1606C16.4063 9.96176 16.2542 9.79451 16.0655 9.67776C15.8769 9.56101 15.6593 9.49944 15.4375 9.50002C13.8628 9.50002 12.3526 10.1256 11.2391 11.2391C10.1256 12.3526 9.5 13.8628 9.5 15.4375C9.50393 18.9007 10.8814 22.2209 13.3303 24.6698C15.7791 27.1186 19.0993 28.4961 22.5625 28.5C23.3422 28.5 24.1143 28.3464 24.8347 28.048C25.5551 27.7497 26.2096 27.3123 26.7609 26.761C27.3123 26.2096 27.7496 25.5551 28.048 24.8347C28.3464 24.1143 28.5 23.3422 28.5 22.5625Z" fill="#1F506A"/>
</svg>
